<svg width="105" height="102" viewBox="0 0 105 102" fill="none" xmlns="http://www.w3.org/2000/svg">
<g clip-path="url(#clip0_71_2)">
<path d="M97.1213 73.1591C85.2985 91.7529 77.4327 94.5199 61.8931 100.513L40.2771 100.513C30.2436 97.4897 13.0048 84.3225 6.36985 74.2325C2.05264 69.2292 5.39713 68.5136 2.47896 63.087C-3.9278 36.2518 10.0026 21.5759 10.0026 21.5759C22.1856 -8.44371 85.917 -5.8556 95.9865 27.8613C95.9865 30.1155 101.661 39.1321 103.252 44.5588C104.843 49.9854 101.889 66.8499 97.1213 73.1591Z" fill="#F9C26B"/>
<path d="M103.252 44.5407C101.661 39.1319 95.9865 30.1153 95.9865 27.8433C85.917 -5.84979 22.1856 -8.46175 10.0026 21.5579C10.0026 21.5579 -3.9278 36.2218 2.47896 63.0689C5.39713 68.4956 2.05264 69.2112 6.36985 74.2144C13.0048 84.2866 30.2436 97.4716 40.253 100.495L61.8691 100.495C77.4087 94.5316 85.2865 91.7348 97.0973 73.141C101.889 66.8497 104.837 49.9495 103.252 44.5407ZM92.9962 58.6202C93.6003 59.1533 94.0834 59.8078 94.4133 60.5404C94.4133 60.5404 94.4133 60.5404 94.4133 60.5404C94.6963 60.9118 94.8406 61.3692 94.8216 61.8345C94.9326 62.4059 94.9709 62.9889 94.9357 63.5698C94.9293 63.8434 94.9053 64.1163 94.8636 64.3868C94.8636 64.6134 94.8036 64.84 94.7556 65.0726C94.7556 65.162 94.7195 65.2574 94.6955 65.3469C94.6371 65.6453 94.561 65.94 94.4673 66.2295C93.9472 67.9369 93.2235 69.5765 92.3117 71.1135V71.1552C90.3663 74.6796 87.5682 78.4603 84.8242 80.8397C84.4039 81.2631 84.0376 81.6209 83.7374 81.8893C82.2663 82.9567 81.6958 83.1357 80.7351 83.1476C80.2552 83.2583 79.756 83.2583 79.2761 83.1476C77.1925 83.1476 77.6068 84.1136 73.4457 87.8348C69.2846 91.5559 44.7023 97.6266 41.7842 94.0426C38.866 90.4587 35.9538 89.2183 27.8959 85.354C19.8379 81.4897 15.4006 77.0768 15.4006 77.0768L15.1003 72.3956C12.7406 70.7438 8.43539 67.291 8.15318 59.5028C-0.99162 29.7575 30.2676 1.87874 49.9743 4.00766C68.432 3.32188 61.3827 12.6665 72.1908 10.4898C79.5462 8.70084 84.8002 19.4349 89.4056 23.1739C94.7496 26.4776 101.937 55.8532 92.9962 58.6202Z" fill="#F2A84D"/>
<path d="M97.1213 73.1591C85.2985 91.7529 77.4327 94.5199 61.8931 100.513L40.2771 100.513C30.2436 97.4897 13.0048 84.3225 6.36985 74.2325C2.05264 69.2292 5.39713 68.5136 2.47896 63.087C-3.9278 36.2518 10.0026 21.5759 10.0026 21.5759C22.1856 -8.44371 85.917 -5.8556 95.9865 27.8613C95.9865 30.1155 101.661 39.1321 103.252 44.5588C104.843 49.9854 101.889 66.8499 97.1213 73.1591Z" stroke="#B06915" stroke-width="2" stroke-miterlimit="10" stroke-linecap="round"/>
<path d="M8.17099 35.7391C6.65786 26.8597 32.0087 -1.33518 56.9092 3.25065C63.1839 4.55067 64.2106 6.60209 62.2232 6.73328C45.6328 3.78141 22.942 11.4086 9.50998 36.3056C9.22177 39.663 8.17099 35.7391 8.17099 35.7391Z" fill="#FFE08E"/>
<path d="M32.5551 56.6285C40.4277 56.6285 46.8097 50.2902 46.8097 42.4715C46.8097 34.6528 40.4277 28.3145 32.5551 28.3145C24.6825 28.3145 18.3005 34.6528 18.3005 42.4715C18.3005 50.2902 24.6825 56.6285 32.5551 56.6285Z" fill="white" stroke="#7C4A12" stroke-width="2" stroke-miterlimit="10"/>
<path d="M71.1819 56.6285C79.0545 56.6285 85.4365 50.2902 85.4365 42.4715C85.4365 34.6528 79.0545 28.3145 71.1819 28.3145C63.3093 28.3145 56.9272 34.6528 56.9272 42.4715C56.9272 50.2902 63.3093 56.6285 71.1819 56.6285Z" fill="white" stroke="#7C4A12" stroke-width="2" stroke-miterlimit="10"/>
<path d="M34.7408 49.5086C38.6539 49.5086 41.826 46.3581 41.826 42.4718C41.826 38.5855 38.6539 35.4351 34.7408 35.4351C30.8277 35.4351 27.6555 38.5855 27.6555 42.4718C27.6555 46.3581 30.8277 49.5086 34.7408 49.5086Z" fill="#AE6116" stroke="#7C4A12" stroke-miterlimit="10"/>
<path d="M68.9964 49.5086C72.9095 49.5086 76.0817 46.3581 76.0817 42.4718C76.0817 38.5855 72.9095 35.4351 68.9964 35.4351C65.0833 35.4351 61.9111 38.5855 61.9111 42.4718C61.9111 46.3581 65.0833 49.5086 68.9964 49.5086Z" fill="#AE6116" stroke="#7C4A12" stroke-miterlimit="10"/>
<path d="M57.5398 59.2766C57.5398 59.2766 56.1767 54.6848 59.173 57.6605L62.2112 60.6779C62.2112 60.6779 64.1387 62.7174 62.5295 63.1289C60.9203 63.5404 59.6713 62.0316 59.6713 62.0316C59.6713 62.0316 49.2296 70.7024 40.5771 62.4551C40.5771 61.0179 41.0995 60.833 41.9402 60.9463C42.7808 61.0596 43.2191 62.139 44.8283 62.5087C46.4375 62.8784 55.0839 64.0473 57.5398 59.2766Z" fill="#AE6116" stroke="#7C4A12" stroke-miterlimit="10"/>
<path d="M25.668 25.6312C25.668 25.6312 29.4028 26.0665 30.2795 25.6312C31.1561 25.1958 35.1791 21.7073 35.3292 21.1109C35.4793 20.5146 35.9297 17.9861 35.3292 17.3302C34.7288 16.6742 32.8374 14.5691 32.1048 14.5691C31.3723 14.5691 27.7156 14.4976 26.4006 15.4398C25.0856 16.382 21.9333 19.6738 23.5545 23.0192C24.4972 25.1959 25.668 25.6312 25.668 25.6312Z" fill="#804312" stroke="#784711" stroke-miterlimit="10"/>
<path d="M23.9508 22.0889C23.9508 22.0889 23.6146 16.7516 28.7184 17.3838C33.8222 18.0159 33.7081 15.4814 33.7081 15.4814C33.7081 15.4814 23.9508 10.9731 23.9508 22.0889Z" fill="#BE7823"/>
</g>
<defs>
<clipPath id="clip0_71_2">
<rect width="104.087" height="100.996" fill="white" transform="translate(0.191162 0.11377)"/>
</clipPath>
</defs>
</svg>
