<svg width="34" height="34" viewBox="0 0 34 34" fill="none" xmlns="http://www.w3.org/2000/svg">
<path fill-rule="evenodd" clip-rule="evenodd" d="M10.6846 0.367555C12.4441 0.286555 13.0051 0.268555 17.4871 0.268555C21.9691 0.268555 22.5301 0.288055 24.2881 0.367555C26.0461 0.447055 27.2461 0.727555 28.2961 1.13405C29.3956 1.54955 30.3931 2.19905 31.2181 3.03905C32.0581 3.86255 32.7061 4.85855 33.1201 5.95955C33.5281 7.00955 33.8071 8.20956 33.8881 9.96455C33.9691 11.7271 33.9871 12.2881 33.9871 16.7686C33.9871 21.2506 33.9676 21.8116 33.8881 23.5711C33.8086 25.3261 33.5281 26.5261 33.1201 27.5761C32.706 28.6772 32.057 29.6749 31.2181 30.4996C30.3931 31.3396 29.3956 31.9876 28.2961 32.4016C27.2461 32.8096 26.0461 33.0886 24.2911 33.1696C22.5301 33.2506 21.9691 33.2686 17.4871 33.2686C13.0051 33.2686 12.4441 33.2491 10.6846 33.1696C8.92956 33.0901 7.72956 32.8096 6.67956 32.4016C5.57844 31.9875 4.58079 31.3384 3.75606 30.4996C2.91663 29.6756 2.26703 28.6784 1.85256 27.5776C1.44606 26.5276 1.16706 25.3276 1.08606 23.5726C1.00506 21.8101 0.987061 21.2491 0.987061 16.7686C0.987061 12.2866 1.00656 11.7256 1.08606 9.96756C1.16556 8.20955 1.44606 7.00955 1.85256 5.95955C2.26764 4.85868 2.91774 3.86152 3.75756 3.03755C4.58112 2.19831 5.57777 1.54872 6.67806 1.13405C7.72806 0.727555 8.92806 0.448555 10.6831 0.367555H10.6846ZM24.1546 3.33755C22.4146 3.25805 21.8926 3.24155 17.4871 3.24155C13.0816 3.24155 12.5596 3.25805 10.8196 3.33755C9.21006 3.41105 8.33706 3.67955 7.75506 3.90605C6.98556 4.20605 6.43506 4.56155 5.85756 5.13906C5.31013 5.67163 4.88883 6.31998 4.62456 7.03655C4.39806 7.61856 4.12956 8.49155 4.05606 10.1011C3.97656 11.8411 3.96006 12.3631 3.96006 16.7686C3.96006 21.1741 3.97656 21.6961 4.05606 23.4361C4.12956 25.0456 4.39806 25.9186 4.62456 26.5006C4.88856 27.2161 5.31006 27.8656 5.85756 28.3981C6.39006 28.9456 7.03956 29.3671 7.75506 29.6311C8.33706 29.8576 9.21006 30.1261 10.8196 30.1996C12.5596 30.2791 13.0801 30.2956 17.4871 30.2956C21.8941 30.2956 22.4146 30.2791 24.1546 30.1996C25.7641 30.1261 26.6371 29.8576 27.2191 29.6311C27.9886 29.3311 28.5391 28.9756 29.1166 28.3981C29.6641 27.8656 30.0856 27.2161 30.3496 26.5006C30.5761 25.9186 30.8446 25.0456 30.9181 23.4361C30.9976 21.6961 31.0141 21.1741 31.0141 16.7686C31.0141 12.3631 30.9976 11.8411 30.9181 10.1011C30.8446 8.49155 30.5761 7.61856 30.3496 7.03655C30.0496 6.26705 29.6941 5.71656 29.1166 5.13906C28.584 4.59166 27.9356 4.17037 27.2191 3.90605C26.6371 3.67955 25.7641 3.41105 24.1546 3.33755ZM15.3796 21.8551C16.5565 22.345 17.8671 22.4111 19.0875 22.0421C20.3078 21.6731 21.3621 20.8919 22.0705 19.8319C22.7788 18.7719 23.0971 17.4989 22.9711 16.2302C22.8451 14.9616 22.2826 13.776 21.3796 12.8761C20.8039 12.3008 20.1079 11.8603 19.3416 11.5863C18.5752 11.3123 17.7577 11.2116 16.9478 11.2915C16.1379 11.3714 15.3558 11.6298 14.6578 12.0483C13.9597 12.4667 13.3632 13.0347 12.911 13.7113C12.4589 14.388 12.1623 15.1565 12.0428 15.9615C11.9233 16.7665 11.9838 17.588 12.2199 18.3668C12.456 19.1457 12.8618 19.8625 13.4081 20.4656C13.9545 21.0688 14.6278 21.5433 15.3796 21.8551ZM11.4901 10.7716C12.2776 9.98402 13.2125 9.35931 14.2415 8.9331C15.2705 8.50688 16.3733 8.28752 17.4871 8.28752C18.6008 8.28752 19.7036 8.50688 20.7326 8.9331C21.7616 9.35931 22.6965 9.98402 23.4841 10.7716C24.2716 11.5591 24.8963 12.494 25.3225 13.523C25.7487 14.552 25.9681 15.6548 25.9681 16.7686C25.9681 17.8823 25.7487 18.9851 25.3225 20.0141C24.8963 21.0431 24.2716 21.978 23.4841 22.7656C21.8936 24.3561 19.7364 25.2496 17.4871 25.2496C15.2377 25.2496 13.0806 24.3561 11.4901 22.7656C9.89956 21.1751 9.00602 19.0179 9.00602 16.7686C9.00602 14.5192 9.89956 12.3621 11.4901 10.7716ZM27.8491 9.55056C28.0442 9.36646 28.2005 9.14508 28.3085 8.89952C28.4166 8.65396 28.4743 8.38921 28.4782 8.12095C28.4821 7.85269 28.4321 7.58638 28.3313 7.33777C28.2304 7.08916 28.0807 6.86332 27.891 6.67361C27.7013 6.48391 27.4755 6.33419 27.2268 6.23333C26.9782 6.13247 26.7119 6.08252 26.4437 6.08643C26.1754 6.09034 25.9107 6.14804 25.6651 6.2561C25.4195 6.36416 25.1982 6.5204 25.0141 6.71555C24.656 7.0951 24.46 7.59924 24.4676 8.12095C24.4752 8.64266 24.6859 9.14087 25.0548 9.50982C25.4237 9.87877 25.922 10.0894 26.4437 10.097C26.9654 10.1046 27.4695 9.90859 27.8491 9.55056Z" fill="#33634B"/>
</svg>
