<svg xmlns="http://www.w3.org/2000/svg" viewBox="0 0 604.49 199.94"><defs><style>.cls-1{fill:#f6f6f6;}.cls-2{fill:#fff;}</style></defs><g id="Calque_2" data-name="Calque 2"><path class="cls-1" d="M84.91,135a23.7,23.7,0,0,1-7.15,1.63C75,136.87,72,137,69,137s-6,0-8.92,0a17.08,17.08,0,0,1-2.89,5.2,11.5,11.5,0,0,1-4.44,3.32,10,10,0,0,1-9.77-.85,6.81,6.81,0,0,1-2.44-2.74,3.84,3.84,0,0,1,.24-3.41q.93-1.81,4.61-3.38a30,30,0,0,1,5-1.59q2.77-.67,5.81-1.11a52.06,52.06,0,0,0,.2-9q-.28-5-.8-10.39c-.33-3.6-.65-7.14-.93-10.61a15.23,15.23,0,0,1-7.78-1.18,8,8,0,0,1-4.25-4,7.37,7.37,0,0,1-.55-3.5,7.89,7.89,0,0,1,1.2-3.62,6.52,6.52,0,0,1,3.13-2.62A6.7,6.7,0,0,0,46.25,91a17.43,17.43,0,0,0,.81,2.68,8.72,8.72,0,0,0,3.11,4,9.64,9.64,0,0,0,4.19,1.62q-.42-5.2-.5-10.14A48.78,48.78,0,0,1,54.53,80a21.83,21.83,0,0,1,2.52-7.17,10.55,10.55,0,0,1,5.06-4.42,12.34,12.34,0,0,1,4.21-.9,8.26,8.26,0,0,1,8.35,5.75A18.1,18.1,0,0,1,76,79.62a20.81,20.81,0,0,1-1.1,7.52,21.45,21.45,0,0,1-4.34,7.43,25.08,25.08,0,0,1-8.53,6l-.36.15-.36.16c.3,3.52.57,7.1.79,10.72s.3,7.15.25,10.57a56.67,56.67,0,0,1-.88,9.45l7.77-.95q4.28-.5,8.4-1.35a38.17,38.17,0,0,0,7-2.09,15.06,15.06,0,0,0,3.37-2,22.2,22.2,0,0,0,2.92-2.8c.2,3.44-.2,6.15-1.22,8.12A9.27,9.27,0,0,1,84.91,135Zm-34.26,7.89a6.13,6.13,0,0,0,3-2.35,19.93,19.93,0,0,0,1.59-3.37c-1.9.11-3.66.28-5.27.49a15.68,15.68,0,0,0-4,1,3.81,3.81,0,0,0-2,1.49,1.89,1.89,0,0,0-.1,1.65,3.13,3.13,0,0,0,2.59,1.64A7.34,7.34,0,0,0,50.65,142.89Zm10.41-45A12.67,12.67,0,0,0,66.35,93a21.5,21.5,0,0,0,2.59-6.77,25.26,25.26,0,0,0,.48-7,17.43,17.43,0,0,0-1.16-5.5,4.21,4.21,0,0,0-2-2.5,2.86,2.86,0,0,0-2.17,0c-1.54.66-2.59,2.28-3.13,4.84a40.06,40.06,0,0,0-.64,9.49Q60.49,91.25,61.06,97.9Z"/><path class="cls-1" d="M100.36,125.63a7,7,0,0,1-9-5.24,18.4,18.4,0,0,1-.6-6.73,33.75,33.75,0,0,1,1.61-7.85,36.69,36.69,0,0,1,3.48-7.65,29.07,29.07,0,0,1,5.07-6.32,16.31,16.31,0,0,1,6.31-3.75,10.51,10.51,0,0,1,6.63,0,6,6,0,0,1,4,4.06,3.71,3.71,0,0,1-.59,3.73,5.2,5.2,0,0,1-3.57,1.72c0-.53-.09-1.06-.16-1.58a9.86,9.86,0,0,0-.36-1.62,6.83,6.83,0,0,0-1.58-2.79c-.71-.75-1.79-.91-3.23-.47a9,9,0,0,0-4.26,3,23.19,23.19,0,0,0-3.36,5.52,37.45,37.45,0,0,0-2.25,6.78,35.29,35.29,0,0,0-.93,6.78,17.33,17.33,0,0,0,.6,5.55c.54,1.77,1.45,2.46,2.72,2.07a7.4,7.4,0,0,0,3.68-3.16,35.65,35.65,0,0,0,3.26-6.13q1.52-3.56,2.77-7.17t2.21-6.17a.79.79,0,0,1,.54-.62c.23,0,.7,0,1.4,0a6.52,6.52,0,0,1,2,.33A1.82,1.82,0,0,1,118,99.15a4.92,4.92,0,0,1-.06,2.34c-.21,1-.47,2.12-.8,3.33a28.87,28.87,0,0,0-.72,3.59,7.33,7.33,0,0,0,.19,3.17,4.05,4.05,0,0,0,1.2,1.86,2.17,2.17,0,0,0,2.21.37q2-.61,4.71-4.66T129,96.88l2.07,1.1a37.54,37.54,0,0,1-2.36,9.4,25.51,25.51,0,0,1-4.22,7.19,12,12,0,0,1-5.64,3.86,6.29,6.29,0,0,1-5.73-.61,8.87,8.87,0,0,1-3.25-4.1l-.08-.25a1.09,1.09,0,0,0,0-.17,52.19,52.19,0,0,1-4.18,8.19A9.58,9.58,0,0,1,100.36,125.63Z"/><path class="cls-1" d="M169.23,111.34q-4.59.5-6.35-1.12a7.71,7.71,0,0,1-2.28-4.44,31.87,31.87,0,0,1-.3-7.82q.28-4.65,1.14-10t2.08-10.73l-2.9.81c-1.32.36-2.66.74-4,1.14s-2.47.77-3.29,1.1a6,6,0,0,1,1.24-4.52,11.1,11.1,0,0,1,4.12-3,28.85,28.85,0,0,1,5.89-1.89q1.08-6.57,2.34-12.86c.85-4.19,1.76-8.06,2.76-11.61a12.18,12.18,0,0,0-1.22.1q-.69.07-1.89.3a23.73,23.73,0,0,0-7.87,2.61,7.16,7.16,0,0,0-3.35,3.89,11,11,0,0,0-.13,5.25,16.23,16.23,0,0,0,1.15,3.81,26.72,26.72,0,0,0,2,3.56c-2.76,0-4.83-.47-6.21-1.54a7.12,7.12,0,0,1-2.6-4.51,11.21,11.21,0,0,1,1.83-8.48,22.67,22.67,0,0,1,7.89-7A38.44,38.44,0,0,1,171.48,40a70,70,0,0,1,9.17-1.08,66.84,66.84,0,0,0,8.57-1,28.53,28.53,0,0,0,4.05-1.06,42.9,42.9,0,0,0,4.35-1.83A33.55,33.55,0,0,1,192,42.38a10.17,10.17,0,0,1-4.81,2.48,33.4,33.4,0,0,1-5.4.43,69.14,69.14,0,0,0-7.16.49c-.4,2-.81,4.21-1.22,6.77s-.8,5.27-1.18,8.17-.75,5.89-1.12,9c3-.32,5.73-.57,8.18-.72s5.13-.46,8.06-.88a11.56,11.56,0,0,1-1.69,2.57,7,7,0,0,1-2.61,1.67,37.09,37.09,0,0,1-4.69,1.41q-3,.74-7.86,1.72c-.14,1.79-.3,3.62-.49,5.48s-.35,3.46-.48,4.78-.24,2.14-.3,2.44a131.43,131.43,0,0,0-.81,14A55.23,55.23,0,0,0,169.23,111.34Z"/><path class="cls-1" d="M201.34,102.13q-5.52.75-8.89-1.81a10.22,10.22,0,0,1-4-7,19.68,19.68,0,0,1,.83-8.32,33.18,33.18,0,0,1,4.12-8.72,29.67,29.67,0,0,1,6.4-7.07,15.8,15.8,0,0,1,7.61-3.41,8.55,8.55,0,0,1,4.42.58c1.46.59,2.34,2,2.66,4.33A11,11,0,0,1,213.44,77a19.61,19.61,0,0,1-4.39,5.78,31.13,31.13,0,0,1-6.52,4.62,32.5,32.5,0,0,1-7.45,2.91,4.57,4.57,0,0,0,0,.75,10.7,10.7,0,0,0,.13,1.25c0,.29.15.79.33,1.49A7,7,0,0,0,196.56,96a5.22,5.22,0,0,0,2.26,1.79,7.19,7.19,0,0,0,3.91.34,15,15,0,0,0,7-3,29.42,29.42,0,0,0,6.16-6.32,32.51,32.51,0,0,0,4.35-8.24l1.92,1.15a32.89,32.89,0,0,1-4.75,9.86,28.17,28.17,0,0,1-7.28,7.14A20.86,20.86,0,0,1,201.34,102.13ZM195.59,87a16.69,16.69,0,0,0,4.78-2.23,28.39,28.39,0,0,0,4.85-4,20.13,20.13,0,0,0,3.59-4.92,8.48,8.48,0,0,0,1-5,1.84,1.84,0,0,0-.52-1.24,1.56,1.56,0,0,0-1.17-.2,7.7,7.7,0,0,0-3.94,2,22.71,22.71,0,0,0-3.72,4.28A32.84,32.84,0,0,0,195.59,87Z"/><path class="cls-1" d="M235.82,96.47a7.77,7.77,0,0,1-5.36-1.19A5.69,5.69,0,0,1,228,90.92a13.2,13.2,0,0,1,.72-5.31q.94-2.88,2-5.68a11.67,11.67,0,0,0,.8-4.88,4.63,4.63,0,0,0-1.61-3.21,11.2,11.2,0,0,0-3.24-1.92,94.47,94.47,0,0,1-3.41,9.62c-1.31,3.13-2.37,5.57-3.19,7.34l-1.54-2.39c.67-1.58,1.53-3.81,2.6-6.71A95.53,95.53,0,0,0,224,68.16,3.17,3.17,0,0,1,223,65.9a7.25,7.25,0,0,1,1-4.37c.79-1.41,1.63-2.16,2.49-2.25a1.61,1.61,0,0,1,1.63,1,5.6,5.6,0,0,1,.63,1.55,6.54,6.54,0,0,1-.24,1.6c-.19.78-.33,1.34-.41,1.7.12.63.68,1.2,1.69,1.71s2.16,1.12,3.45,1.82a13.33,13.33,0,0,1,3.49,2.72,7.42,7.42,0,0,1,1.82,4.46,12.9,12.9,0,0,1-.64,5.21c-.59,1.8-1.18,3.49-1.79,5.06a9.13,9.13,0,0,0-.76,4,1.76,1.76,0,0,0,.8,1.54,3,3,0,0,0,1.56.24,8.9,8.9,0,0,0,4.2-1.67A23,23,0,0,0,246,86.6,30.07,30.07,0,0,0,249.38,82a24.76,24.76,0,0,0,2.13-4.26l2.22,1.36a29.42,29.42,0,0,1-4.06,7.76,28.77,28.77,0,0,1-6.37,6.55A14.78,14.78,0,0,1,235.82,96.47Z"/><path class="cls-1" d="M295.69,93.44a6.17,6.17,0,0,1-5.11-1.81,7.24,7.24,0,0,1-1.83-4.72,13.53,13.53,0,0,1,.45-4c.36-1.35.71-2.68,1.07-4a12.2,12.2,0,0,0,.48-3.54,2.89,2.89,0,0,0-.65-2,2,2,0,0,0-1.45-.51c-1.33.05-2.85,1.12-4.53,3.21a93.19,93.19,0,0,0-6.23,9.11,49.4,49.4,0,0,0-2.44,4.49c-.76,1.57-1.43,2.88-2,4a10.67,10.67,0,0,1-2.05-.18,9.54,9.54,0,0,1-2.24-.66,1.43,1.43,0,0,1-1-1.22,10.68,10.68,0,0,1,.76-3.08c.52-1.53,1.12-3.3,1.8-5.33s1.27-4,1.77-6a17.7,17.7,0,0,0,.69-4.95,3.54,3.54,0,0,0-.51-1.89,1.52,1.52,0,0,0-1.42-.64c-1.21,0-2.65.82-4.3,2.33a41.28,41.28,0,0,0-5.17,5.9,60.8,60.8,0,0,0-5,8A53.8,53.8,0,0,0,253,94.7a8.94,8.94,0,0,1-2.36-.31,11.5,11.5,0,0,1-2.47-.86q-1.06-.52-1.08-1c0-.06.17-.89.51-2.5s.77-3.61,1.25-6,1-4.85,1.55-7.36,1-4.71,1.41-6.58c.15-.65.76-1.24,1.85-1.77a7.25,7.25,0,0,1,2.84-.85,3,3,0,0,1,2.11.71,2.65,2.65,0,0,1,.95,2.05,14.31,14.31,0,0,1-.25,2.53c-.2,1.11-.44,2.37-.73,3.77,1.15-1.67,2.38-3.32,3.68-5a40.09,40.09,0,0,1,4.1-4.46,22.8,22.8,0,0,1,4.31-3.21A9.67,9.67,0,0,1,275,62.63q3.21-.12,4.43,2.14a11.26,11.26,0,0,1,1.32,5,13.61,13.61,0,0,1-.09,2.22,18.68,18.68,0,0,1-.4,2.19c-.17.74-.42,1.6-.73,2.6A34.76,34.76,0,0,1,283,72.12a17.15,17.15,0,0,1,4.09-3.42,10,10,0,0,1,4.73-1.4q3.39-.12,4.77,1.87a8.23,8.23,0,0,1,1.48,4.42,17.22,17.22,0,0,1-.56,4.77q-.66,2.51-1.3,4.74a12.26,12.26,0,0,0-.6,3.81,3.16,3.16,0,0,0,.49,1.59,1.85,1.85,0,0,0,1.77.68,6.42,6.42,0,0,0,4.44-2.35,26.43,26.43,0,0,0,3.83-5.49,65.09,65.09,0,0,0,3-6.16L310.64,77a47.1,47.1,0,0,1-3.33,7.39,23.93,23.93,0,0,1-4.94,6.36A10.23,10.23,0,0,1,295.69,93.44Z"/><path class="cls-1" d="M316.7,94.68c-3.71-.06-6.54-1.11-8.51-3.15A10.23,10.23,0,0,1,305.32,84a19.81,19.81,0,0,1,2.1-8.09,33.53,33.53,0,0,1,5.4-8,29.8,29.8,0,0,1,7.41-6,15.72,15.72,0,0,1,8-2.21,8.57,8.57,0,0,1,4.28,1.25q2,1.22,2,4.69a11,11,0,0,1-2,6.14,19.66,19.66,0,0,1-5.22,5,31,31,0,0,1-7.15,3.57,32.59,32.59,0,0,1-7.82,1.73,5.4,5.4,0,0,0-.14.74q0,.39-.06,1.26a14.32,14.32,0,0,0,.1,1.52,7,7,0,0,0,.7,2.32,5.19,5.19,0,0,0,2,2.12,7.18,7.18,0,0,0,3.81.94,15.07,15.07,0,0,0,7.38-1.92,29.41,29.41,0,0,0,7.05-5.31,32.33,32.33,0,0,0,5.57-7.47l1.71,1.42a32.49,32.49,0,0,1-6.2,9,28.13,28.13,0,0,1-8.28,6A20.8,20.8,0,0,1,316.7,94.68Zm-3.37-15.8a16.52,16.52,0,0,0,5.07-1.47,28.25,28.25,0,0,0,5.4-3.21,20.39,20.39,0,0,0,4.29-4.32,8.47,8.47,0,0,0,1.74-4.8,1.86,1.86,0,0,0-.33-1.31,1.56,1.56,0,0,0-1.12-.37,7.61,7.61,0,0,0-4.2,1.37,22.55,22.55,0,0,0-4.32,3.66,32.57,32.57,0,0,0-6.53,10.45Z"/><path class="cls-1" d="M373.28,101.1a19.71,19.71,0,0,1-5.66-1.45,9.15,9.15,0,0,1-4.33-4,55.84,55.84,0,0,1,1.91-5.91q1.43-3.87,3.45-8.77t4.24-10.08q2.24-5.17,4.36-9.89T381,52.75c1.1-2.36,1.92-4.06,2.44-5.12.22-.44.59-1.1,1.09-2A20.47,20.47,0,0,1,386.43,43a10.09,10.09,0,0,1,2.47-2.22,4.31,4.31,0,0,1,2.83-.7,6.13,6.13,0,0,1,3.15,1.57q-3.33,5.76-6.86,12.85t-6.84,14.65q-3.33,7.56-6.16,14.72T370.22,97a8.66,8.66,0,0,0,1.91.6,21.86,21.86,0,0,0,2.36.39,22.48,22.48,0,0,0,11-1.56,36.44,36.44,0,0,0,10.17-6.24,52.41,52.41,0,0,0,8.59-9.38,54.79,54.79,0,0,0,6.19-11.09,40.91,40.91,0,0,0,3-11.23q.76-7-1.14-11.62a14.8,14.8,0,0,0-5.83-7.11,21.37,21.37,0,0,0-9.28-3.06,24.4,24.4,0,0,0-10.34.93,17.28,17.28,0,0,0-7.64,4.76,13.23,13.23,0,0,0-3.42,7.72,12.48,12.48,0,0,0,0,2.05,9.13,9.13,0,0,0,.37,2.18q-3.72-.41-5.14-2.17a5.4,5.4,0,0,1-1.17-4.11,10.72,10.72,0,0,1,2.87-5.9,23.52,23.52,0,0,1,6.76-5.08A35,35,0,0,1,389,33.85a38.21,38.21,0,0,1,11.42-.38q8.46.93,13.21,4.72a18.72,18.72,0,0,1,6.44,9.54,31.6,31.6,0,0,1,1,12.48,43.16,43.16,0,0,1-3.92,14,47.81,47.81,0,0,1-7.93,11.77,50.09,50.09,0,0,1-10.76,8.89,45.75,45.75,0,0,1-12.39,5.3A35.42,35.42,0,0,1,373.28,101.1Z"/><path class="cls-1" d="M421.22,102.13A5.65,5.65,0,0,1,417,98.55a11,11,0,0,1-.67-6.54,25.37,25.37,0,0,1,1.83-5.5,44.55,44.55,0,0,1,3.19-5.94,30.8,30.8,0,0,1,3.53-4.65c1.14-1.2,2.08-1.73,2.82-1.6a4.91,4.91,0,0,1,1.72,1,9.07,9.07,0,0,1,1.88,2,32,32,0,0,0-3,3.76,49.43,49.43,0,0,0-3.49,5.63,20.14,20.14,0,0,0-2.13,5.7c-.05.23-.1.78-.18,1.65a7.74,7.74,0,0,0,.19,2.51A1.85,1.85,0,0,0,424.21,98a4.83,4.83,0,0,0,3.41-1,27.11,27.11,0,0,0,4.19-3.46q2.24-2.19,4.44-4.79t4.05-5.08c1.22-1.65,2.24-3.06,3-4.2a13.16,13.16,0,0,1,1.93.8,8.62,8.62,0,0,1,2,1.31,1.76,1.76,0,0,1,.65,1.75,12.5,12.5,0,0,1-1.21,2q-1.16,1.68-2.7,4a54.3,54.3,0,0,0-2.87,4.91,16.64,16.64,0,0,0-1.7,4.59,4.53,4.53,0,0,0,.07,2.18,1.9,1.9,0,0,0,1.67,1.24,8.33,8.33,0,0,0,4.58-.82,25.53,25.53,0,0,0,6-3.74,33.8,33.8,0,0,0,6.08-6.46L459,92.49a33,33,0,0,1-6.43,7.38,26.12,26.12,0,0,1-7.49,4.56,12.91,12.91,0,0,1-7.06.84,5.35,5.35,0,0,1-3.5-1.85,5.8,5.8,0,0,1-1.1-3.3,20.19,20.19,0,0,1,.18-3.81c.05-.29.11-.59.17-.9s.11-.59.15-.81q-1.89,2-4,3.89a20.36,20.36,0,0,1-4.32,3A6.7,6.7,0,0,1,421.22,102.13Z"/><path class="cls-1" d="M459.08,113.65q-4.8-1.26-6.49-4.9t-.33-8.85a42,42,0,0,1,4-9.38,112.81,112.81,0,0,1,6.89-10.82q4-5.55,8.44-10.72a119.25,119.25,0,0,1,8.76-9.21,51.3,51.3,0,0,1,7.74-6.19c2.29-1.44,4.09-2,5.38-1.65a2.82,2.82,0,0,1,2,2.6,11.29,11.29,0,0,1-.09,4.11,21.25,21.25,0,0,1-2.51,5.46,50.87,50.87,0,0,1-4.74,6.39,69.36,69.36,0,0,1-6.26,6.36,48.85,48.85,0,0,1-7.1,5.32,27.77,27.77,0,0,1-7.28,3.22A27.5,27.5,0,0,0,465,88.78a59.15,59.15,0,0,0-3.21,5.72,34.32,34.32,0,0,0-2.53,6.71,16,16,0,0,0-.55,6,3.57,3.57,0,0,0,2.78,3.29,8.07,8.07,0,0,0,5.24-.78,17.19,17.19,0,0,0,5.4-3.8,11.55,11.55,0,0,1-3.47-5.94,13.93,13.93,0,0,1,.08-6.82,10,10,0,0,1,4-6.05,7.19,7.19,0,0,1,6.09-1.1,5.84,5.84,0,0,1,3.92,3.23c.81,1.69.85,3.95.09,6.81a23.3,23.3,0,0,1-2,5,28.54,28.54,0,0,1-3.31,4.93,4.79,4.79,0,0,1,.7.23,6.3,6.3,0,0,0,.79.25,8.44,8.44,0,0,0,5.46-.27,15.73,15.73,0,0,0,4.53-2.86,36.65,36.65,0,0,0,3.31-3.35l.8,2.09a20.6,20.6,0,0,1-7.16,6.21,12.4,12.4,0,0,1-8.72.5l-.88-.23a5.12,5.12,0,0,1-.86-.32,24.79,24.79,0,0,1-7.54,4.9A13.61,13.61,0,0,1,459.08,113.65Zm11.4-33.14a36,36,0,0,0,5.26-3.43,62.17,62.17,0,0,0,5.12-4.41,61.28,61.28,0,0,0,4.48-4.75c1.35-1.6,2.5-3.06,3.45-4.4a17.39,17.39,0,0,0,1.95-3.31l.08-.29.05-.21a8.18,8.18,0,0,0-3.12,1.78,63.75,63.75,0,0,0-5.36,4.66,84.74,84.74,0,0,0-6.19,6.65A74.94,74.94,0,0,0,470.48,80.51Zm3.84,23a17.07,17.07,0,0,0,3.39-6.75,10.92,10.92,0,0,0,.46-4.64c-.23-1.08-.68-1.71-1.35-1.88s-1.49.14-2.29,1a7.94,7.94,0,0,0-1.75,3.41,14.25,14.25,0,0,0-.33,4.32A7.39,7.39,0,0,0,474.32,103.54Z"/><path class="cls-1" d="M489.58,118.42q-3.69-1.31-4.2-4.2a11.4,11.4,0,0,1,.51-5.77,20.23,20.23,0,0,1,2.72-5.08A23.24,23.24,0,0,1,492.67,99a15.23,15.23,0,0,1,4.54-2.68,5.89,5.89,0,0,1,4.07-.18,5.56,5.56,0,0,1,1.28.68,2.15,2.15,0,0,1,.89,1,24.93,24.93,0,0,0-3.07,2.33,38.2,38.2,0,0,0-3.23,3.15,26.77,26.77,0,0,0-2.79,3.58,17.41,17.41,0,0,0-1.82,3.6,5.74,5.74,0,0,0-.34,2.92,2.44,2.44,0,0,0,1.8,1.84,6.87,6.87,0,0,0,4.35-.45,34.49,34.49,0,0,0,5.58-2.6,15.08,15.08,0,0,1-1.94-6.54,19.37,19.37,0,0,1,1.26-7.25,12,12,0,0,1,2.25-3.64,10.16,10.16,0,0,1,4.15-2.87,8.23,8.23,0,0,1,5.78.2q3.52,1.23,4.27,3.71a8.25,8.25,0,0,1-.21,5.18,18.71,18.71,0,0,1-4,6.25,46.74,46.74,0,0,1-6.33,5.79,5.38,5.38,0,0,0,2.13,1.3,10.09,10.09,0,0,0,3.15.46,10.94,10.94,0,0,0,4-.74,9.9,9.9,0,0,0,3.91-2.72l1.1,1.58a13.91,13.91,0,0,1-7,4.42,11.34,11.34,0,0,1-6.54-.14,11.61,11.61,0,0,1-2.06-1,13.88,13.88,0,0,1-1.78-1.23,34,34,0,0,1-8.42,3.49A13.68,13.68,0,0,1,489.58,118.42Zm17.4-8.07a37,37,0,0,0,5.53-5A16.48,16.48,0,0,0,516,99.81a5.34,5.34,0,0,0,.4-3A2.06,2.06,0,0,0,515,95.39q-1.56-.54-4,1.09a9.63,9.63,0,0,0-3.6,5,18.1,18.1,0,0,0-.86,4.4A10.23,10.23,0,0,0,507,110.35Z"/><path class="cls-1" d="M519.69,129.58a7.05,7.05,0,0,1-4.31-4.41,8.22,8.22,0,0,1,.48-5.78,24,24,0,0,1,2.69-4.32,50.13,50.13,0,0,1,4.4-5,46.14,46.14,0,0,1,5.23-4.56,21.24,21.24,0,0,1,5.22-3,5.6,5.6,0,0,1,4.26-.14,2.77,2.77,0,0,1,1.4,1.34,2.28,2.28,0,0,1,0,2,7.77,7.77,0,0,1-2.61,2.55l-5,3.49a48.23,48.23,0,0,0-5.36,4.32,15.48,15.48,0,0,0-3.69,5c-.76,1.7-1,3-.6,3.79a4.23,4.23,0,0,0,2.29,2c1.8.8,4.16.78,7.08-.08s6.52-3,10.81-6.5l.62,1.8a31.33,31.33,0,0,1-11.92,7.72A14.8,14.8,0,0,1,519.69,129.58ZM545.05,98a5.69,5.69,0,0,1-2.4-2,2.77,2.77,0,0,1-.18-2.89A4.22,4.22,0,0,1,546,90.76a8.45,8.45,0,0,1,4.89.56A4.83,4.83,0,0,1,553,93a2.77,2.77,0,0,1,0,2.74,4.75,4.75,0,0,1-3.27,2.4A6.57,6.57,0,0,1,545.05,98Z"/><path class="cls-1" d="M539.22,141a12.29,12.29,0,0,1-5.19-5,10.06,10.06,0,0,1-1-5.81,14.72,14.72,0,0,1,1.81-5.42,8.74,8.74,0,0,1,2.55-3,4.83,4.83,0,0,1,2.52-.91,11,11,0,0,1,2.2.1,3.77,3.77,0,0,0,1.55,0,62.91,62.91,0,0,0,6.5-2.34,33.08,33.08,0,0,0,6.74-3.81l.43-.75q1.74-3,3.46-3.68a3.49,3.49,0,0,1,3.09.11,2,2,0,0,1,1.06,1.21,2.12,2.12,0,0,1-.11,1.34,4.26,4.26,0,0,1-.79,1,6.53,6.53,0,0,0-1.14,1.55,17,17,0,0,0-1.87,5.8q-.57,3.52-1.33,7.4a23.81,23.81,0,0,1-2.71,7.27c-.34.6-.69,1.14-1,1.61a14.32,14.32,0,0,1-1,1.31,13,13,0,0,0,6.09,0,23.54,23.54,0,0,0,7.7-3.46l.51,1.2a19.31,19.31,0,0,1-8.1,4.52,13.58,13.58,0,0,1-8.18-.42,10,10,0,0,1-6.59,2.34A14.65,14.65,0,0,1,539.22,141Zm1.37-3.62a6.19,6.19,0,0,0,6.52-.18,17.69,17.69,0,0,1-4.21-5.61,19.24,19.24,0,0,1-1.81-5.75c-.8-.25-1.54.22-2.23,1.43a9.68,9.68,0,0,0-1.24,5.5A5.45,5.45,0,0,0,540.59,137.37Zm8.41-2.1a6.13,6.13,0,0,0,.91-1.13c.29-.47.52-.82.66-1.08a35,35,0,0,0,2.94-7.23c.71-2.53,1.46-5.11,2.23-7.74q-2.7,1.56-6.07,3.24a37.09,37.09,0,0,1-5.9,2.43,16.14,16.14,0,0,0,1.35,5.88A16.35,16.35,0,0,0,549,135.27Z"/><path class="cls-2" d="M69.86,160.23c121.93-57.85,306.83-64.49,432.87-15.84,6.63,2.69,14.08,6,20.4,9.26l6.65,3.47a3.91,3.91,0,1,1-3.85,6.81l-6.35-3.44c-6.09-3.29-13.26-6.57-19.67-9.28-26.93-11.34-55.33-18.77-84-24.22C301.13,106.05,176,115.2,69.86,160.23Z"/></g></svg>