<svg width="35" height="35" viewBox="0 0 35 35" fill="none" xmlns="http://www.w3.org/2000/svg">
<g clip-path="url(#clip0_65_1342)">
<path d="M34.1839 7.26295C33.001 7.78712 31.7303 8.14128 30.3943 8.30137C31.7728 7.47657 32.804 6.17844 33.2957 4.6492C32.0006 5.41844 30.5832 5.95989 29.1052 6.25003C28.1112 5.18876 26.7947 4.48533 25.36 4.24896C23.9253 4.01258 22.4526 4.25649 21.1708 4.94281C19.8889 5.62913 18.8694 6.71946 18.2707 8.04453C17.672 9.3696 17.5275 10.8553 17.8597 12.2709C15.2356 12.1391 12.6685 11.4571 10.325 10.269C7.98157 9.0809 5.91411 7.41335 4.25684 5.37453C3.69017 6.35203 3.36434 7.48537 3.36434 8.69237C3.36371 9.77894 3.63129 10.8489 4.14333 11.8072C4.65538 12.7656 5.39607 13.5828 6.29967 14.1862C5.25173 14.1529 4.22691 13.8697 3.31051 13.3603V13.4453C3.3104 14.9692 3.83755 16.4463 4.80252 17.6259C5.76748 18.8054 7.11082 19.6148 8.60459 19.9166C7.63245 20.1797 6.61323 20.2185 5.62392 20.03C6.04538 21.3412 6.86633 22.4879 7.97186 23.3094C9.07739 24.131 10.4121 24.5862 11.7893 24.6115C9.45152 26.4466 6.56443 27.4421 3.59242 27.4377C3.06596 27.4378 2.53995 27.4071 2.01709 27.3456C5.03385 29.2853 8.54557 30.3147 12.1321 30.3107C24.2729 30.3107 30.91 20.2552 30.91 11.5342C30.91 11.2509 30.9029 10.9647 30.8902 10.6814C32.1812 9.74775 33.2955 8.59164 34.1811 7.2672L34.1839 7.26295Z" fill="#33634B"/>
</g>
<defs>
<clipPath id="clip0_65_1342">
<rect width="34" height="34" fill="white" transform="translate(0.689697 0.268555)"/>
</clipPath>
</defs>
</svg>
